<svg xmlns="http://www.w3.org/2000/svg" width="136" height="44" viewBox="0 0 136 44" role="img" aria-label="GitHub">
  <defs>
    <filter id="glow" x="-30%" y="-30%" width="160%" height="160%">
      <feGaussianBlur stdDeviation="4" result="blur"/>
      <feMerge>
        <feMergeNode in="blur"/>
        <feMergeNode in="SourceGraphic"/>
      </feMerge>
    </filter>
  </defs>
  <style>
    .btn-bg { transition: all 0.2s ease; }
    .btn-wrap:hover .btn-bg { fill: #2d2d2d; filter: url(#glow); }
    .btn-wrap:hover { cursor: pointer; }
  </style>
  <a href="https://github.com/certus-sec" target="_blank" class="btn-wrap">
    <rect class="btn-bg" width="136" height="44" rx="22" fill="#181717"/>
    <g transform="translate(14, 10) scale(0.95)">
      <path fill="#fff" d="M12 .5C5.65.5.5 5.65.5 12c0 5.08 3.29 9.39 7.86 10.91.58.11.79-.25.79-.56v-2.18c-3.2.7-3.88-1.36-3.88-1.36-.52-1.33-1.28-1.68-1.28-1.68-1.05-.72.08-.7.08-.7 1.16.08 1.77 1.19 1.77 1.19 1.03 1.76 2.69 1.25 3.35.95.1-.75.4-1.25.73-1.54-2.55-.29-5.24-1.28-5.24-5.69 0-1.26.45-2.29 1.18-3.1-.12-.29-.51-1.47.11-3.07 0 0 .97-.31 3.19 1.18a11.1 11.1 0 0 1 5.81 0c2.22-1.49 3.19-1.18 3.19-1.18.62 1.6.23 2.78.11 3.07.73.81 1.18 1.84 1.18 3.1 0 4.42-2.69 5.39-5.25 5.68.41.35.78 1.04.78 2.1v3.11c0 .31.21.67.8.56A11.51 11.51 0 0 0 23.5 12C23.5 5.65 18.35.5 12 .5Z"/>
    </g>
    <text x="50" y="27" fill="white" font-size="13" font-family="Verdana, Geneva, DejaVu Sans, sans-serif" font-weight="700" letter-spacing="0.4">GITHUB</text>
  </a>
</svg>
