<svg xmlns="http://www.w3.org/2000/svg" width="136" height="44" viewBox="0 0 136 44" role="img" aria-label="Gmail">
  <defs>
    <linearGradient id="gmail-a" x1="165" x2="165" y1="44" y2="166" gradientUnits="userSpaceOnUse">
      <stop stop-color="#60D673"/>
      <stop offset=".17" stop-color="#42C868"/>
      <stop offset=".39" stop-color="#0EBC5F"/>
      <stop offset=".62" stop-color="#00A9BB"/>
      <stop offset=".86" stop-color="#3C90FF"/>
      <stop offset="1" stop-color="#3186FF"/>
    </linearGradient>
    <linearGradient id="gmail-b" x1="8" x2="184" y1="46.13" y2="46.13" gradientUnits="userSpaceOnUse">
      <stop offset=".08" stop-color="#FF63A0"/>
      <stop offset=".30" stop-color="#FC413D"/>
      <stop offset=".50" stop-color="#FC413D"/>
      <stop offset=".65" stop-color="#FC413D"/>
      <stop offset=".72" stop-color="#FC5C30"/>
      <stop offset=".86" stop-color="#FEB10C"/>
      <stop offset=".91" stop-color="#FEC700"/>
      <stop offset=".96" stop-color="#FFDB0F"/>
    </linearGradient>
    <filter id="glow-gmail" x="-30%" y="-30%" width="160%" height="160%">
      <feGaussianBlur stdDeviation="4" result="blur"/>
      <feMerge>
        <feMergeNode in="blur"/>
        <feMergeNode in="SourceGraphic"/>
      </feMerge>
    </filter>
  </defs>
  <style>
    .btn-bg-gmail { transition: all 0.2s ease; }
    .btn-wrap-gmail:hover .btn-bg-gmail { filter: url(#glow-gmail); stroke: #FC413D; stroke-width: 1.5; }
    .btn-wrap-gmail:hover { cursor: pointer; }
  </style>
  <a href="mailto:contact.sbf3737@gmail.com" target="_blank" class="btn-wrap-gmail">
    <rect class="btn-bg-gmail" x="0.5" y="0.5" width="135" height="43" rx="21.5" fill="#FFFFFF" stroke="#E5E7EB"/>
    <g transform="translate(14, 8.5) scale(0.13)">
      <path fill="url(#gmail-a)" d="M146 44h38v110c0 6.627-5.373 12-12 12h-20a6 6 0 0 1-6-6z"/>
      <path fill="#FC413D" d="M46 44H8v110c0 6.627 5.373 12 12 12h20a6 6 0 0 0 6-6z"/>
      <path fill="url(#gmail-b)" d="M39.226 30.456c-8.033-6.752-20.018-5.714-26.77 2.319-6.752 8.032-5.714 20.017 2.319 26.77l76.078 63.949a8 8 0 0 0 10.295 0l76.078-63.95c8.032-6.752 9.07-18.737 2.318-26.77-6.752-8.032-18.737-9.07-26.769-2.318L96 78.18z"/>
    </g>
    <text x="53" y="27" fill="#111827" font-size="13" font-family="Verdana, Geneva, DejaVu Sans, sans-serif" font-weight="700" letter-spacing="0.4">GMAIL</text>
  </a>
</svg>
