<svg xmlns="http://www.w3.org/2000/svg" width="136" height="44" viewBox="0 0 136 44" role="img" aria-label="LinkedIn">
  <rect width="136" height="44" rx="22" fill="#0A66C2"/>
  <g transform="translate(14, 11) scale(0.95)">
    <path fill="#fff" d="M4.98 3.5C4.98 4.88 3.87 6 2.5 6S.02 4.88.02 3.5C.02 2.12 1.13 1 2.5 1s2.48 1.12 2.48 2.5zM.25 8h4.5v13.5H.25V8zm7.25 0h4.3v1.85h.06c.6-1.13 2.06-2.32 4.24-2.32 4.53 0 5.37 2.98 5.37 6.85V21.5h-4.5v-6.3c0-1.5-.03-3.43-2.09-3.43-2.09 0-2.41 1.63-2.41 3.32V21.5H7.5V8z"/>
  </g>
  <text x="50" y="27" fill="white" font-size="13" font-family="Verdana, Geneva, DejaVu Sans, sans-serif" font-weight="700" letter-spacing="0.4">LINKEDIN</text>
</svg>
